<?xml version="1.0" encoding="UTF-8"?>
<svg id="Layer_2" data-name="Layer 2" xmlns="http://www.w3.org/2000/svg" xmlns:xlink="http://www.w3.org/1999/xlink" viewBox="0 0 1351 790">
  <defs>
    <style>
      .cls-1 {
        clip-path: url(#clippath);
      }

      .cls-2 {
        fill: none;
      }

      .cls-2, .cls-3, .cls-4 {
        stroke-width: 0px;
      }

      .cls-5 {
        opacity: .1;
      }

      .cls-3 {
        fill: #b3c3bd;
      }

      .cls-4 {
        fill: #16282c;
      }
    </style>
    <clipPath id="clippath">
      <rect class="cls-2" width="1351" height="774.43"/>
    </clipPath>
  </defs>
  <g id="Layer_1-2" data-name="Layer 1">
    <g>
      <rect class="cls-4" width="1186" height="790"/>
      <g class="cls-1">
        <g class="cls-5">
          <path class="cls-3" d="M0,210.49c1.02.3,1.59-.19,2.05-1.06,1.4-2.65,2.87-5.25,4.27-7.9,4.84-9.17,9.7-18.33,14.47-27.54,4.12-7.98,8.09-16.04,12.18-24.03,6.05-11.8,12.13-23.59,18.24-35.36,3.45-6.65,6.99-13.25,10.49-19.86.71-1.35,1.82-2.07,3.39-2.05,1.08.01,2.16,0,3.24,0,96.57,0,193.14,0,289.71,0,.97,0,1.98-.16,2.91.03,4.26.84,6.3-1.5,7.7-5.05,3.54-8.95,7.1-17.9,10.74-26.81,3.52-8.61,7.19-17.16,10.73-25.77,3.37-8.21,6.59-16.48,9.99-24.69,3.97-9.58,8.08-19.11,12.09-28.67,1.57-3.75,3.11-7.51,4.57-11.3.88-2.3,2.58-3.66,4.74-4.54,6.56-2.69,13.14-5.32,19.7-8,9.55-3.9,19.1-7.78,28.62-11.74,8.92-3.72,17.77-7.59,26.69-11.3,8.63-3.59,17.32-7.03,25.97-10.56,7.16-2.93,14.32-5.85,21.44-8.87,2.17-.92,4.11-.7,6.22.19,7.52,3.2,15.07,6.3,22.63,9.41,8.84,3.64,17.71,7.2,26.55,10.86,10.92,4.52,21.78,9.19,32.76,13.59,3.67,1.47,4.66,1.13,6.4-2.46,3.51-7.22,6.95-14.47,10.39-21.72.7-1.48,1.69-2.46,3.42-2.46.86,0,1.73-.01,2.59-.01,170.89,0,341.77,0,512.66-.04,3.23,0,6.05.8,8.95,2.17,6.11,2.9,12.41,5.4,18.61,8.13,9.14,4.02,18.25,8.11,27.39,12.15,2.06.91,4.22,1.62,6.24,2.61,2.43,1.2,2.55,2.23.55,4.06-5.99,5.49-12,10.96-18.05,16.38-7.09,6.35-14.18,12.68-21.35,18.92-4.76,4.14-9.66,8.1-14.48,12.17-1.06.9-2.01,1.93-3.05,2.85-6.26,5.5-12.54,10.99-18.82,16.48-.16.14-.35.25-.51.4-5.23,4.73-10.46,9.47-15.69,14.21-.71.65-1.37,1.35-2.08,2-3.02,2.77-6.33,4.19-10.69,4.19-131.14-.11-262.27-.09-393.41-.08-2.33,0-4.66.12-7.2.19.35,2.72,1.93,4.2,3.4,5.69,6.59,6.69,13.55,13.06,19.74,20.1,12.56,14.26,26.86,26.84,39.56,40.92,11.86,13.15,25.05,24.98,36.87,38.11,12.71,14.13,26.87,26.83,39.57,40.91,11.93,13.23,25.23,25.11,37.09,38.35,12.25,13.67,25.98,25.88,38.21,39.53,12.18,13.59,25.83,25.73,38.01,39.27,12.34,13.73,26.12,26.05,38.43,39.76,12.26,13.66,25.99,25.87,38.23,39.5,12.27,13.66,25.98,25.89,38.21,39.53,12.26,13.67,26,25.87,38.23,39.5,12.34,13.74,25.83,26.31,38.51,39.69,3.92,4.14,7.71,8.39,11.57,12.59,2.32,2.51,2.42,2.99.57,5.87-5.7,8.84-11.43,17.67-17.18,26.48-7.16,10.96-14.34,21.91-21.53,32.85-8.66,13.2-17.42,26.33-25.95,39.61-2.07,3.23-5.08,5.2-7.98,7.33-8.71,6.39-17.51,12.65-26.3,18.93-4.53,3.23-9.12,6.36-13.66,9.57-4.19,2.96-8.4,5.9-12.49,9-1.47,1.12-2.97,1.66-4.75,1.64-1.08-.01-2.16,0-3.24,0-127.46,0-254.93-.03-382.39.11-4.91,0-8.27-1.4-10.57-5.59-.21-.37-.44-.74-.72-1.06-3.89-4.39-7.82-8.75-11.69-13.16-2.74-3.13-5.39-6.33-8.09-9.49-4.71-5.52-9.46-11-14.13-16.56-3.23-3.84-6.34-7.78-9.5-11.68-.4-.5-.79-1.01-1.22-1.49-3.89-4.39-7.86-8.72-11.67-13.18-4.15-4.87-8.16-9.87-12.21-14.83-1.23-1.51-1.13-2.32.6-3.33,1.75-1.03,3.61-1.87,5.46-2.73,6.14-2.84,12.3-5.63,18.44-8.48,9.92-4.6,19.89-9.11,29.73-13.9,4.1-2,8.23-2.66,12.75-2.66,116.99.07,233.97.04,350.96.14,4.13,0,7.13-1.22,9.94-4.12,7.24-7.46,14.67-14.73,22.01-22.09.61-.61,1.19-1.23,1.74-1.89,1.74-2.11,1.74-3.3-.14-5.3-7.52-8.01-15.39-15.73-22.51-24.08-6.12-7.17-13.26-13.35-19.21-20.61-5.65-6.89-12.54-12.56-18.19-19.38-6.01-7.25-13.21-13.38-19.2-20.59-5.27-6.36-11.56-11.71-16.83-18.01-6.12-7.3-13.3-13.59-19.43-20.83-5.54-6.55-12.11-12.1-17.53-18.67-6.22-7.53-13.7-13.82-19.9-21.28-5.55-6.68-12.26-12.25-17.71-18.92-5.91-7.23-13.08-13.23-18.96-20.4-5.37-6.55-11.96-11.95-17.29-18.45-5.92-7.22-13.07-13.24-18.97-20.4-5.46-6.62-12.05-12.15-17.55-18.65-6.29-7.44-13.59-13.9-19.83-21.32-5.52-6.56-12.11-12.1-17.52-18.68-5.93-7.21-13.08-13.23-18.97-20.4-5.72-6.97-12.68-12.72-18.4-19.61-6.02-7.25-13.25-13.35-19.19-20.6-5.24-6.39-11.6-11.67-16.83-18-6.06-7.35-13.35-13.55-19.42-20.83-5.43-6.51-11.95-11.95-17.3-18.45-6.27-7.62-13.84-13.98-20.11-21.51-5.55-6.68-12.15-12.32-17.74-18.89-4.24-4.98-8.73-9.66-13.22-14.38-1.31-1.37-2.26-1.87-4.12-1.1-4.93,2.05-9.98,3.84-14.95,5.82-6.06,2.41-12.1,4.89-18.12,7.39-5.93,2.46-11.81,5.03-17.75,7.45-5.75,2.34-11.56,4.54-17.33,6.83-1.29.51-2.73.88-3.78,1.72-1.21.97-2.38,2.24-3.02,3.62-2.51,5.47-4.79,11.04-7.17,16.57-3.99,9.28-8.02,18.55-11.99,27.84-3.21,7.51-6.33,15.06-9.57,22.55-1.01,2.34-1.34,4.72-1.33,7.24.03,23.11.02,46.23.02,69.34,0,29.16-.19,58.33.16,87.49.07,5.65-2.32,9.04-6.14,12.24-2.54,2.13-5.02,4.32-7.54,6.48-5.67,4.87-11.35,9.74-17.02,14.62-1.05.91-2.07,1.86-3.12,2.78-5.88,5.13-11.76,10.25-17.63,15.37-.24.21-.5.41-.73.62-5.16,4.65-10.28,9.35-15.5,13.94-4.82,4.24-9.75,8.33-14.6,12.53-2.02,1.75-3.95,3.6-5.92,5.4-2.26,2.08-3.18,2.01-4.54-.74-2.42-4.9-4.68-9.88-7-14.82-.95-2.04-1.87-4.09-2.83-6.13-3.27-6.99-6.56-13.97-9.81-20.97-2.21-4.76-4.46-9.51-6.48-14.35-.6-1.43-.65-3.15-.66-4.74-.05-12.31-.03-24.63-.03-36.94,0-23.76,0-47.53,0-71.29,0-2.17.07-4.34-1.95-6.38-.95,0-2.24,0-3.52,0-17.5,0-35,0-52.5,0-.76,0-1.51-.02-2.27.03-1.89.13-2.74.77-3.03,2.66-.23,1.48-.2,3.01-.2,4.52-.01,29.7-.05,59.41.06,89.11.01,3.09-.88,5.25-3.26,7.2-5.87,4.81-11.58,9.81-17.35,14.73-.49.42-.94.88-1.43,1.3-5.98,5.17-11.97,10.33-17.95,15.5-.65.56-1.2,1.22-1.84,1.79-4.95,4.4-9.89,8.83-14.89,13.18-5,4.35-10.07,8.61-15.11,12.92-5.12,4.38-10.16,8.85-15.39,13.1-2.78,2.26-3.45,2.03-4.95-1.18-3.81-8.13-7.52-16.31-11.29-24.46-1.93-4.18-3.89-8.35-5.84-12.52-2.73-5.81-5.57-11.57-8.12-17.45-.69-1.6-.69-3.57-.7-5.38-.05-18.9-.03-37.8-.03-56.71,0-17.07-.03-34.13.03-51.2,0-2.44-.45-4.67-1.66-6.97h-60.03c-1.62,2.17-1.67,4.52-1.67,6.93.02,29.7-.03,59.41.07,89.11.01,3.4-.8,5.72-3.74,7.87-4.46,3.27-8.34,7.34-12.55,10.96-4.7,4.04-9.53,7.94-14.25,11.96-4.15,3.53-8.24,7.14-12.37,10.7-4.7,4.04-9.42,8.06-14.13,12.09-.97.83-1.96,1.65-2.93,2.49-5.28,4.51-10.57,9.02-15.85,13.54-3.81,3.27-7.61,6.55-11.4,9.84-.48.42-.89.93-1.39,1.33-1.55,1.24-2.68,1.08-3.55-.71-2.11-4.32-4.08-8.7-6.15-13.04-2.39-5.02-4.86-10.01-7.2-15.05-3.78-8.14-7.45-16.33-11.22-24.48-.76-1.65-1.7-3.23-2.72-4.73-.35-.52-1.19-.71-1.8-1.06,0-39.32,0-78.64,0-117.95Z"/>
          <path class="cls-3" d="M752.48,765.26c-2.35-3.02-4.64-6.1-7.06-9.06-3.51-4.3-7.11-8.52-10.69-12.76-3.09-3.67-6.19-7.34-9.3-11-4.28-5.04-8.57-10.07-12.85-15.1-1.04-1.22-2.07-2.45-3.11-3.66-1.55-1.8-1.46-2.66.56-3.69,2.58-1.31,5.19-2.59,7.84-3.77,7.46-3.32,14.93-6.61,22.44-9.82,1.34-.57,2.87-.77,4.32-1.03.73-.13,1.51-.03,2.26-.03,69.66,0,139.32.02,208.99-.06,3.86,0,7.1.95,10.25,3.11,16.86,11.52,33.78,22.94,50.68,34.39,1.78,1.2,3.61,2.34,5.3,3.65,1.65,1.28,1.65,1.91-.06,3.19-3.42,2.56-6.92,5.03-10.41,7.51-6.8,4.84-13.65,9.61-20.39,14.52-1.2.88-2.73,1.75-2.85,3.6h-235.92Z"/>
          <path class="cls-3" d="M589.1,330.87c-1-.81-1.87-1.39-2.6-2.12-6.46-6.35-12.91-12.72-19.35-19.1-5.46-5.42-10.66-11.13-16.42-16.21-6.57-5.79-12.86-11.83-19.02-18.05-.07-.08-.19-.11-.26-.19-2.65-2.67-2.69-3.46-.11-6.04,3.1-3.11,6.25-6.17,9.36-9.26,13.19-13.14,26.35-26.32,39.6-39.41,2.43-2.4,5.2-4.45,7.83-6.66,1.11-.94,2.17-.75,3.16.21,1.77,1.74,3.55,3.47,5.3,5.23,4.95,4.97,10.14,9.73,14.78,14.97,10.72,12.1,22.44,23.22,33.72,34.77.52.54.97,1.15,1.46,1.72.84,1,.71,1.99-.07,2.93-.75.91-1.53,1.8-2.36,2.63-17.14,17.19-34.29,34.38-51.45,51.54-1.04,1.04-2.24,1.91-3.56,3.02Z"/>
        </g>
      </g>
    </g>
  </g>
</svg>