<?xml version="1.0" encoding="UTF-8"?>
<svg xmlns="http://www.w3.org/2000/svg" xmlns:xlink="http://www.w3.org/1999/xlink" version="1.1" viewBox="0 0 1351 790">
  <defs>
    <style>
      .cls-1 {
        fill: none;
      }

      .cls-2 {
        fill: #383f49;
      }

      .cls-3 {
        fill: #fff;
      }

      .cls-4 {
        opacity: .1;
      }

      .cls-5 {
        clip-path: url(#clippath);
      }
    </style>
    <clipPath id="clippath">
      <rect class="cls-1" width="1351" height="774.4"/>
    </clipPath>
  </defs>
  <!-- Generator: Adobe Illustrator 28.6.0, SVG Export Plug-In . SVG Version: 1.2.0 Build 709)  -->
  <g>
    <g id="Layer_2">
      <g id="Layer_1-2">
        <g>
          <rect class="cls-2" width="1186" height="790"/>
          <g class="cls-5">
            <g class="cls-4">
              <path class="cls-3" d="M0,210.5c1,.3,1.6-.2,2-1.1,1.4-2.6,2.9-5.2,4.3-7.9,4.8-9.2,9.7-18.3,14.5-27.5,4.1-8,8.1-16,12.2-24,6-11.8,12.1-23.6,18.2-35.4,3.5-6.7,7-13.2,10.5-19.9.7-1.3,1.8-2.1,3.4-2.1,1.1,0,2.2,0,3.2,0h289.7c1,0,2-.2,2.9,0,4.3.8,6.3-1.5,7.7-5.1,3.5-8.9,7.1-17.9,10.7-26.8,3.5-8.6,7.2-17.2,10.7-25.8,3.4-8.2,6.6-16.5,10-24.7,4-9.6,8.1-19.1,12.1-28.7,1.6-3.8,3.1-7.5,4.6-11.3.9-2.3,2.6-3.7,4.7-4.5,6.6-2.7,13.1-5.3,19.7-8,9.5-3.9,19.1-7.8,28.6-11.7,8.9-3.7,17.8-7.6,26.7-11.3,8.6-3.6,17.3-7,26-10.6,7.2-2.9,14.3-5.8,21.4-8.9,2.2-.9,4.1-.7,6.2.2,7.5,3.2,15.1,6.3,22.6,9.4,8.8,3.6,17.7,7.2,26.5,10.9,10.9,4.5,21.8,9.2,32.8,13.6,3.7,1.5,4.7,1.1,6.4-2.5,3.5-7.2,7-14.5,10.4-21.7.7-1.5,1.7-2.5,3.4-2.5s1.7,0,2.6,0c170.9,0,341.8,0,512.7,0,3.2,0,6.1.8,8.9,2.2,6.1,2.9,12.4,5.4,18.6,8.1,9.1,4,18.2,8.1,27.4,12.2,2.1.9,4.2,1.6,6.2,2.6,2.4,1.2,2.6,2.2.6,4.1-6,5.5-12,11-18.1,16.4-7.1,6.4-14.2,12.7-21.3,18.9-4.8,4.1-9.7,8.1-14.5,12.2-1.1.9-2,1.9-3.1,2.8-6.3,5.5-12.5,11-18.8,16.5-.2.1-.3.2-.5.4-5.2,4.7-10.5,9.5-15.7,14.2-.7.7-1.4,1.3-2.1,2-3,2.8-6.3,4.2-10.7,4.2-131.1-.1-262.3,0-393.4,0-2.3,0-4.7.1-7.2.2.3,2.7,1.9,4.2,3.4,5.7,6.6,6.7,13.5,13.1,19.7,20.1,12.6,14.3,26.9,26.8,39.6,40.9,11.9,13.2,25,25,36.9,38.1,12.7,14.1,26.9,26.8,39.6,40.9,11.9,13.2,25.2,25.1,37.1,38.4,12.2,13.7,26,25.9,38.2,39.5,12.2,13.6,25.8,25.7,38,39.3,12.3,13.7,26.1,26,38.4,39.8,12.3,13.7,26,25.9,38.2,39.5,12.3,13.7,26,25.9,38.2,39.5,12.3,13.7,26,25.9,38.2,39.5,12.3,13.7,25.8,26.3,38.5,39.7,3.9,4.1,7.7,8.4,11.6,12.6,2.3,2.5,2.4,3,.6,5.9-5.7,8.8-11.4,17.7-17.2,26.5-7.2,11-14.3,21.9-21.5,32.8-8.7,13.2-17.4,26.3-25.9,39.6-2.1,3.2-5.1,5.2-8,7.3-8.7,6.4-17.5,12.7-26.3,18.9-4.5,3.2-9.1,6.4-13.7,9.6-4.2,3-8.4,5.9-12.5,9-1.5,1.1-3,1.7-4.8,1.6-1.1,0-2.2,0-3.2,0-127.5,0-254.9,0-382.4.1-4.9,0-8.3-1.4-10.6-5.6-.2-.4-.4-.7-.7-1.1-3.9-4.4-7.8-8.8-11.7-13.2-2.7-3.1-5.4-6.3-8.1-9.5-4.7-5.5-9.5-11-14.1-16.6-3.2-3.8-6.3-7.8-9.5-11.7-.4-.5-.8-1-1.2-1.5-3.9-4.4-7.9-8.7-11.7-13.2-4.2-4.9-8.2-9.9-12.2-14.8-1.2-1.5-1.1-2.3.6-3.3,1.8-1,3.6-1.9,5.5-2.7,6.1-2.8,12.3-5.6,18.4-8.5,9.9-4.6,19.9-9.1,29.7-13.9,4.1-2,8.2-2.7,12.8-2.7,117,0,234,0,351,.1,4.1,0,7.1-1.2,9.9-4.1,7.2-7.5,14.7-14.7,22-22.1.6-.6,1.2-1.2,1.7-1.9,1.7-2.1,1.7-3.3-.1-5.3-7.5-8-15.4-15.7-22.5-24.1-6.1-7.2-13.3-13.4-19.2-20.6-5.7-6.9-12.5-12.6-18.2-19.4-6-7.2-13.2-13.4-19.2-20.6-5.3-6.4-11.6-11.7-16.8-18-6.1-7.3-13.3-13.6-19.4-20.8-5.5-6.5-12.1-12.1-17.5-18.7-6.2-7.5-13.7-13.8-19.9-21.3-5.5-6.7-12.3-12.2-17.7-18.9-5.9-7.2-13.1-13.2-19-20.4-5.4-6.5-12-12-17.3-18.5-5.9-7.2-13.1-13.2-19-20.4-5.5-6.6-12-12.1-17.5-18.6-6.3-7.4-13.6-13.9-19.8-21.3-5.5-6.6-12.1-12.1-17.5-18.7-5.9-7.2-13.1-13.2-19-20.4-5.7-7-12.7-12.7-18.4-19.6-6-7.2-13.2-13.4-19.2-20.6-5.2-6.4-11.6-11.7-16.8-18-6.1-7.3-13.3-13.6-19.4-20.8-5.4-6.5-12-11.9-17.3-18.4-6.3-7.6-13.8-14-20.1-21.5-5.5-6.7-12.2-12.3-17.7-18.9-4.2-5-8.7-9.7-13.2-14.4-1.3-1.4-2.3-1.9-4.1-1.1-4.9,2-10,3.8-15,5.8-6.1,2.4-12.1,4.9-18.1,7.4-5.9,2.5-11.8,5-17.8,7.5-5.8,2.3-11.6,4.5-17.3,6.8-1.3.5-2.7.9-3.8,1.7-1.2,1-2.4,2.2-3,3.6-2.5,5.5-4.8,11-7.2,16.6-4,9.3-8,18.6-12,27.8-3.2,7.5-6.3,15.1-9.6,22.6-1,2.3-1.3,4.7-1.3,7.2,0,23.1,0,46.2,0,69.3s-.2,58.3.2,87.5c0,5.6-2.3,9-6.1,12.2-2.5,2.1-5,4.3-7.5,6.5-5.7,4.9-11.4,9.7-17,14.6-1,.9-2.1,1.9-3.1,2.8-5.9,5.1-11.8,10.2-17.6,15.4-.2.2-.5.4-.7.6-5.2,4.6-10.3,9.4-15.5,13.9-4.8,4.2-9.8,8.3-14.6,12.5-2,1.8-4,3.6-5.9,5.4-2.3,2.1-3.2,2-4.5-.7-2.4-4.9-4.7-9.9-7-14.8-1-2-1.9-4.1-2.8-6.1-3.3-7-6.6-14-9.8-21-2.2-4.8-4.5-9.5-6.5-14.4-.6-1.4-.6-3.1-.7-4.7,0-12.3,0-24.6,0-36.9v-71.3c0-2.2,0-4.3-2-6.4h-56c-.8,0-1.5,0-2.3,0-1.9.1-2.7.8-3,2.7-.2,1.5-.2,3-.2,4.5,0,29.7,0,59.4,0,89.1,0,3.1-.9,5.2-3.3,7.2-5.9,4.8-11.6,9.8-17.4,14.7-.5.4-.9.9-1.4,1.3-6,5.2-12,10.3-18,15.5-.6.6-1.2,1.2-1.8,1.8-4.9,4.4-9.9,8.8-14.9,13.2s-10.1,8.6-15.1,12.9c-5.1,4.4-10.2,8.9-15.4,13.1-2.8,2.3-3.4,2-4.9-1.2-3.8-8.1-7.5-16.3-11.3-24.5-1.9-4.2-3.9-8.4-5.8-12.5-2.7-5.8-5.6-11.6-8.1-17.5-.7-1.6-.7-3.6-.7-5.4,0-18.9,0-37.8,0-56.7s0-34.1,0-51.2c0-2.4-.4-4.7-1.7-7h-60c-1.6,2.2-1.7,4.5-1.7,6.9,0,29.7,0,59.4,0,89.1,0,3.4-.8,5.7-3.7,7.9-4.5,3.3-8.3,7.3-12.6,11-4.7,4-9.5,7.9-14.2,12-4.2,3.5-8.2,7.1-12.4,10.7-4.7,4-9.4,8.1-14.1,12.1-1,.8-2,1.6-2.9,2.5-5.3,4.5-10.6,9-15.8,13.5-3.8,3.3-7.6,6.5-11.4,9.8-.5.4-.9.9-1.4,1.3-1.5,1.2-2.7,1.1-3.5-.7-2.1-4.3-4.1-8.7-6.1-13-2.4-5-4.9-10-7.2-15-3.8-8.1-7.4-16.3-11.2-24.5-.8-1.6-1.7-3.2-2.7-4.7-.4-.5-1.2-.7-1.8-1.1v-117.9h0Z"/>
              <path class="cls-3" d="M752.5,765.3c-2.3-3-4.6-6.1-7.1-9.1-3.5-4.3-7.1-8.5-10.7-12.8-3.1-3.7-6.2-7.3-9.3-11-4.3-5-8.6-10.1-12.8-15.1-1-1.2-2.1-2.5-3.1-3.7-1.5-1.8-1.5-2.7.6-3.7,2.6-1.3,5.2-2.6,7.8-3.8,7.5-3.3,14.9-6.6,22.4-9.8,1.3-.6,2.9-.8,4.3-1,.7-.1,1.5,0,2.3,0,69.7,0,139.3,0,209,0,3.9,0,7.1,1,10.2,3.1,16.9,11.5,33.8,22.9,50.7,34.4,1.8,1.2,3.6,2.3,5.3,3.7,1.7,1.3,1.7,1.9,0,3.2-3.4,2.6-6.9,5-10.4,7.5-6.8,4.8-13.7,9.6-20.4,14.5-1.2.9-2.7,1.8-2.8,3.6h-235.9Z"/>
              <path class="cls-3" d="M589.1,330.9c-1-.8-1.9-1.4-2.6-2.1-6.5-6.4-12.9-12.7-19.3-19.1-5.5-5.4-10.7-11.1-16.4-16.2-6.6-5.8-12.9-11.8-19-18,0,0-.2-.1-.3-.2-2.7-2.7-2.7-3.5-.1-6,3.1-3.1,6.2-6.2,9.4-9.3,13.2-13.1,26.3-26.3,39.6-39.4,2.4-2.4,5.2-4.4,7.8-6.7,1.1-.9,2.2-.8,3.2.2,1.8,1.7,3.5,3.5,5.3,5.2,5,5,10.1,9.7,14.8,15,10.7,12.1,22.4,23.2,33.7,34.8.5.5,1,1.1,1.5,1.7.8,1,.7,2,0,2.9-.8.9-1.5,1.8-2.4,2.6-17.1,17.2-34.3,34.4-51.5,51.5-1,1-2.2,1.9-3.6,3h0Z"/>
            </g>
          </g>
        </g>
      </g>
    </g>
  </g>
</svg>