<?xml version="1.0" encoding="UTF-8"?>
<svg id="Layer_2" data-name="Layer 2" xmlns="http://www.w3.org/2000/svg" viewBox="0 0 939.18 649">
  <defs>
    <style>
      .cls-1 {
        opacity: .1;
      }

      .cls-2 {
        fill: #b3c3bd;
        stroke-width: 0px;
      }
    </style>
  </defs>
  <g id="Layer_1-2" data-name="Layer 1">
    <g class="cls-1">
      <path class="cls-2" d="M0,225.64c.78.23,1.22-.14,1.57-.81,1.07-2.02,2.19-4.01,3.25-6.03,3.69-7,7.4-13.99,11.04-21.02,3.15-6.09,6.17-12.24,9.3-18.34,4.62-9.01,9.26-18,13.92-26.98,2.63-5.07,5.33-10.11,8.01-15.16.55-1.03,1.39-1.58,2.58-1.56.82.01,1.65,0,2.47,0,73.7,0,147.39,0,221.09,0,.74,0,1.51-.12,2.22.02,3.25.64,4.81-1.14,5.88-3.85,2.7-6.83,5.42-13.66,8.2-20.46,2.69-6.57,5.49-13.1,8.19-19.66,2.57-6.27,5.03-12.58,7.63-18.84,3.03-7.31,6.16-14.58,9.23-21.88,1.2-2.86,2.38-5.73,3.49-8.62.67-1.75,1.97-2.79,3.61-3.46,5-2.05,10.02-4.06,15.03-6.11,7.28-2.98,14.58-5.93,21.84-8.96,6.81-2.84,13.56-5.79,20.37-8.62,6.59-2.74,13.22-5.36,19.82-8.06,5.46-2.23,10.92-4.47,16.36-6.77,1.65-.7,3.14-.54,4.74.15,5.74,2.44,11.5,4.81,17.27,7.18,6.75,2.77,13.52,5.5,20.26,8.29,8.34,3.45,16.62,7.02,25,10.37,2.8,1.12,3.56.86,4.89-1.88,2.68-5.51,5.3-11.04,7.93-16.57.54-1.13,1.29-1.87,2.61-1.87.66,0,1.32-.01,1.98-.01,130.41,0,260.82,0,391.23-.03,2.47,0,4.62.61,6.83,1.66,4.67,2.21,9.47,4.12,14.2,6.21,6.98,3.07,13.93,6.19,20.9,9.27,1.58.7,3.22,1.24,4.77,2,1.85.91,1.95,1.7.42,3.1-4.57,4.19-9.16,8.36-13.78,12.5-5.41,4.84-10.82,9.68-16.3,14.44-3.63,3.16-7.38,6.18-11.05,9.29-.81.68-1.53,1.47-2.33,2.17-4.78,4.2-9.57,8.39-14.36,12.58-.12.11-.27.19-.39.3-3.99,3.61-7.99,7.22-11.97,10.84-.54.49-1.05,1.03-1.59,1.53-2.31,2.12-4.83,3.2-8.16,3.2-100.07-.08-200.15-.07-300.22-.06-1.78,0-3.56.09-5.5.15.27,2.08,1.47,3.2,2.6,4.35,5.03,5.11,10.34,9.97,15.07,15.34,9.59,10.89,20.5,20.48,30.19,31.23,9.05,10.04,19.12,19.06,28.13,29.09,9.7,10.78,20.51,20.47,30.2,31.22,9.11,10.1,19.25,19.16,28.3,29.27,9.35,10.43,19.83,19.75,29.16,30.16,9.3,10.37,19.72,19.63,29,29.97,9.42,10.48,19.94,19.88,29.33,30.34,9.36,10.42,19.84,19.75,29.18,30.14,9.36,10.42,19.82,19.76,29.16,30.16,9.35,10.43,19.84,19.74,29.18,30.14,9.41,10.48,19.71,20.08,29.39,30.29,2.99,3.16,5.88,6.41,8.83,9.61,1.77,1.92,1.85,2.28.43,4.48-4.35,6.75-8.72,13.49-13.11,20.21-5.46,8.37-10.95,16.72-16.43,25.07-6.61,10.07-13.29,20.1-19.8,30.23-1.58,2.46-3.87,3.97-6.09,5.59-6.65,4.88-13.36,9.66-20.07,14.45-3.45,2.47-6.96,4.86-10.42,7.31-3.2,2.26-6.41,4.5-9.53,6.87-1.12.85-2.27,1.27-3.63,1.25-.82,0-1.65,0-2.47,0-97.27,0-194.54-.02-291.82.08-3.75,0-6.31-1.07-8.07-4.27-.16-.29-.34-.57-.55-.81-2.97-3.35-5.97-6.68-8.92-10.04-2.09-2.39-4.12-4.83-6.18-7.25-3.59-4.21-7.22-8.4-10.78-12.64-2.46-2.93-4.84-5.94-7.25-8.91-.31-.38-.6-.77-.93-1.13-2.97-3.35-6-6.65-8.9-10.06-3.17-3.72-6.23-7.53-9.32-11.32-.94-1.15-.86-1.77.45-2.54,1.34-.78,2.76-1.43,4.17-2.08,4.69-2.17,9.39-4.3,14.07-6.47,7.57-3.51,15.18-6.95,22.68-10.61,3.13-1.52,6.28-2.03,9.73-2.03,89.28.06,178.55.03,267.83.11,3.15,0,5.44-.93,7.59-3.14,5.52-5.69,11.19-11.24,16.8-16.86.46-.46.91-.94,1.33-1.44,1.33-1.61,1.33-2.51-.11-4.04-5.74-6.11-11.74-12-17.18-18.38-4.67-5.47-10.12-10.19-14.66-15.73-4.31-5.26-9.57-9.59-13.88-14.79-4.59-5.54-10.08-10.21-14.65-15.71-4.02-4.85-8.82-8.94-12.85-13.74-4.67-5.57-10.15-10.37-14.82-15.9-4.23-5-9.24-9.24-13.38-14.25-4.74-5.74-10.46-10.55-15.18-16.24-4.23-5.1-9.35-9.35-13.51-14.44-4.51-5.52-9.98-10.09-14.47-15.57-4.1-5-9.13-9.12-13.19-14.08-4.52-5.51-9.97-10.1-14.48-15.57-4.16-5.05-9.19-9.27-13.39-14.24-4.8-5.68-10.37-10.61-15.13-16.27-4.21-5.01-9.24-9.23-13.37-14.25-4.52-5.5-9.99-10.09-14.48-15.57-4.36-5.32-9.68-9.71-14.04-14.97-4.6-5.53-10.11-10.19-14.64-15.72-4-4.88-8.86-8.91-12.84-13.74-4.63-5.61-10.19-10.34-14.82-15.9-4.14-4.96-9.12-9.12-13.2-14.08-4.78-5.81-10.56-10.67-15.35-16.42-4.24-5.1-9.27-9.41-13.54-14.42-3.23-3.8-6.66-7.37-10.09-10.97-1-1.05-1.73-1.43-3.14-.84-3.77,1.57-7.62,2.93-11.41,4.44-4.62,1.84-9.23,3.73-13.83,5.64-4.52,1.87-9.01,3.84-13.55,5.68-4.39,1.79-8.82,3.47-13.22,5.21-.99.39-2.09.67-2.89,1.32-.92.74-1.82,1.71-2.3,2.77-1.91,4.18-3.65,8.43-5.47,12.65-3.05,7.08-6.12,14.15-9.15,21.24-2.45,5.73-4.83,11.49-7.3,17.21-.77,1.79-1.02,3.6-1.02,5.53.03,17.64.01,35.28.01,52.92,0,22.26-.14,44.51.12,66.77.05,4.31-1.77,6.9-4.68,9.34-1.94,1.62-3.83,3.3-5.75,4.94-4.33,3.72-8.66,7.43-12.99,11.16-.8.69-1.58,1.42-2.38,2.12-4.48,3.91-8.97,7.82-13.46,11.73-.18.16-.38.31-.56.47-3.94,3.55-7.85,7.13-11.83,10.64-3.68,3.23-7.44,6.36-11.14,9.56-1.54,1.33-3.01,2.75-4.52,4.12-1.73,1.59-2.43,1.54-3.47-.57-1.85-3.74-3.57-7.54-5.34-11.31-.73-1.56-1.43-3.12-2.16-4.68-2.49-5.34-5.01-10.66-7.49-16-1.69-3.63-3.4-7.26-4.95-10.95-.45-1.09-.5-2.4-.5-3.62-.04-9.4-.02-18.79-.02-28.19,0-18.13,0-36.27,0-54.4,0-1.66.05-3.31-1.49-4.87-.73,0-1.71,0-2.68,0-13.35,0-26.71,0-40.06,0-.58,0-1.16-.01-1.73.03-1.44.1-2.09.59-2.32,2.03-.18,1.13-.16,2.3-.16,3.45,0,22.67-.04,45.34.04,68,0,2.36-.67,4.01-2.49,5.49-4.48,3.67-8.84,7.48-13.24,11.24-.37.32-.72.67-1.09.99-4.57,3.94-9.14,7.88-13.7,11.83-.49.43-.92.93-1.41,1.37-3.78,3.36-7.54,6.74-11.36,10.06-3.81,3.32-7.68,6.57-11.53,9.86-3.91,3.34-7.76,6.75-11.74,10-2.12,1.73-2.63,1.55-3.78-.9-2.91-6.21-5.74-12.45-8.62-18.67-1.47-3.19-2.97-6.37-4.46-9.55-2.08-4.43-4.25-8.83-6.2-13.32-.53-1.22-.53-2.73-.53-4.1-.04-14.43-.02-28.85-.02-43.28,0-13.02-.02-26.05.02-39.07,0-1.86-.35-3.57-1.27-5.32h-45.81c-1.24,1.65-1.27,3.45-1.27,5.29.01,22.67-.02,45.34.05,68,0,2.6-.61,4.36-2.85,6.01-3.41,2.49-6.36,5.6-9.58,8.36-3.59,3.09-7.27,6.06-10.88,9.13-3.17,2.69-6.29,5.45-9.44,8.16-3.59,3.09-7.19,6.15-10.78,9.23-.74.64-1.49,1.26-2.24,1.9-4.03,3.44-8.07,6.88-12.1,10.33-2.91,2.49-5.81,5-8.7,7.51-.37.32-.68.71-1.06,1.02-1.18.94-2.04.83-2.71-.54-1.61-3.3-3.12-6.64-4.69-9.95-1.82-3.83-3.71-7.64-5.49-11.49-2.88-6.21-5.68-12.47-8.56-18.68-.58-1.26-1.3-2.46-2.08-3.61-.27-.4-.91-.54-1.38-.81,0-30,0-60.01,0-90.01Z"/>
      <path class="cls-2" d="M574.24,649c-1.79-2.31-3.54-4.65-5.39-6.91-2.68-3.28-5.43-6.5-8.16-9.74-2.36-2.8-4.73-5.6-7.1-8.39-3.27-3.85-6.54-7.68-9.81-11.53-.79-.93-1.58-1.87-2.38-2.79-1.18-1.37-1.12-2.03.43-2.82,1.97-1,3.96-1.98,5.98-2.88,5.69-2.53,11.39-5.04,17.12-7.49,1.03-.44,2.19-.59,3.3-.79.56-.1,1.15-.02,1.73-.02,53.16,0,106.32.02,159.49-.05,2.95,0,5.42.73,7.82,2.37,12.86,8.79,25.78,17.51,38.68,26.25,1.36.92,2.75,1.78,4.04,2.79,1.26.98,1.26,1.46-.05,2.43-2.61,1.96-5.28,3.84-7.94,5.73-5.19,3.69-10.41,7.33-15.56,11.08-.92.67-2.08,1.34-2.18,2.75h-180.04Z"/>
      <path class="cls-2" d="M449.56,317.5c-.76-.62-1.43-1.06-1.99-1.61-4.93-4.85-9.85-9.71-14.76-14.57-4.17-4.13-8.13-8.5-12.53-12.37-5.02-4.42-9.82-9.03-14.51-13.77-.06-.06-.14-.08-.2-.14-2.02-2.04-2.05-2.64-.09-4.61,2.36-2.37,4.77-4.71,7.14-7.07,10.07-10.03,20.11-20.08,30.22-30.07,1.85-1.83,3.97-3.4,5.97-5.08.85-.71,1.66-.58,2.41.16,1.35,1.33,2.71,2.65,4.05,3.99,3.78,3.79,7.74,7.42,11.28,11.42,8.18,9.24,17.12,17.72,25.73,26.53.4.41.74.88,1.11,1.32.64.76.54,1.52-.05,2.23-.58.69-1.17,1.37-1.8,2.01-13.08,13.12-26.16,26.23-39.26,39.33-.79.79-1.71,1.46-2.71,2.3Z"/>
    </g>
  </g>
</svg>